<?xml version="1.0" encoding="UTF-8" standalone="no"?>
<!-- Created with Inkscape (http://www.inkscape.org/) -->

<svg
   width="564.72321mm"
   height="186.31102mm"
   viewBox="0 0 564.72321 186.31102"
   version="1.1"
   id="svg1"
   inkscape:version="1.4 (e7c3feb1, 2024-10-09)"
   sodipodi:docname="servo_ducky_logo_full_black_text.svg"
   xmlns:inkscape="http://www.inkscape.org/namespaces/inkscape"
   xmlns:sodipodi="http://sodipodi.sourceforge.net/DTD/sodipodi-0.dtd"
   xmlns="http://www.w3.org/2000/svg"
   xmlns:svg="http://www.w3.org/2000/svg">
  <sodipodi:namedview
     id="namedview1"
     pagecolor="#ffffff"
     bordercolor="#000000"
     borderopacity="0.25"
     inkscape:showpageshadow="2"
     inkscape:pageopacity="0.0"
     inkscape:pagecheckerboard="0"
     inkscape:deskcolor="#d1d1d1"
     inkscape:document-units="mm"
     inkscape:zoom="0.26449954"
     inkscape:cx="570.88946"
     inkscape:cy="347.82669"
     inkscape:window-width="1640"
     inkscape:window-height="997"
     inkscape:window-x="287"
     inkscape:window-y="1125"
     inkscape:window-maximized="0"
     inkscape:current-layer="layer1" />
  <defs
     id="defs1" />
  <g
     inkscape:label="Layer 1"
     inkscape:groupmode="layer"
     id="layer1"
     transform="translate(160.04907,-77.161048)">
    <g
       id="g1"
       transform="translate(170.93002,-235.22481)">
      <g
         id="g82"
         style="fill:#000000;fill-opacity:0.97332;stroke:none;stroke-width:3.3;stroke-dasharray:none;stroke-opacity:1"
         inkscape:export-filename="g822.png"
         inkscape:export-xdpi="360"
         inkscape:export-ydpi="360"
         transform="translate(-944.90467,-897.43759)">
        <path
           id="path80"
           style="font-weight:bold;font-size:12.7px;line-height:2.3;font-family:'Good Timing';-inkscape-font-specification:'Good Timing Bold';letter-spacing:0px;fill:#000000;fill-opacity:0.97332;stroke:none;stroke-width:3.3;stroke-linecap:round;stroke-linejoin:round;stroke-miterlimit:22.1;stroke-dasharray:none;stroke-opacity:1;paint-order:markers fill stroke"
           d="m 627.69584,1235.529 c -8.01028,0 -13.77027,5.2309 -13.77027,13.0426 0,7.6793 5.75999,12.9759 13.77027,12.9759 h 18.93142 c 1.65501,0 2.84725,1.1254 2.84725,2.979 0,1.8536 -1.19224,2.9123 -2.84725,2.9123 h -32.17375 v 11.1223 h 32.7044 c 8.07648,0 13.8349,-5.2309 13.8349,-13.175 0,-7.6793 -5.75842,-13.0405 -13.8349,-13.0405 h -18.93413 c -1.65502,0 -2.77991,-1.127 -2.77991,-2.9144 0,-1.8536 1.12489,-2.8446 2.77991,-2.8446 h 32.17374 v -11.0576 z" />
        <path
           id="path81"
           style="font-weight:bold;font-size:12.7px;line-height:2.3;font-family:'Good Timing';-inkscape-font-specification:'Good Timing Bold';letter-spacing:0px;fill:#000000;fill-opacity:0.97332;stroke:none;stroke-width:3.3;stroke-linecap:round;stroke-linejoin:round;stroke-miterlimit:22.1;stroke-dasharray:none;stroke-opacity:1;paint-order:markers fill stroke"
           d="m 1097.0913,1232.7705 v 46.4072 h 11.055 v -46.4072 z m -135.31598,3.3778 v 43.0294 h 24.76062 c 13.10774,0 22.70526,-8.6718 22.70526,-21.5147 0,-12.8429 -9.59752,-21.5147 -22.70526,-21.5147 z m -279.06696,9.9963 c -10.26111,0 -17.7408,6.6852 -17.7408,16.4829 0,9.7977 7.47969,16.5502 17.7408,16.5502 h 17.94012 v -9.07 h -18.00476 c -3.90584,0 -6.68851,-2.5824 -6.68851,-7.5474 0,-5.0313 2.78267,-7.8763 6.68851,-7.8763 h 6.75044 c 1.72121,0 2.51594,0.8595 2.51594,2.4484 0,1.5888 -0.85936,2.3165 -2.58058,2.3165 h -9.46842 v 6.0258 h 11.78497 c 7.61308,0 10.79103,-2.979 10.79103,-8.7385 0,-6.2229 -3.70859,-10.5916 -11.32167,-10.5916 z m 41.04411,0 c -10.79071,0 -16.48282,5.7595 -16.48282,15.7558 v 17.2773 h 11.05499 v -17.3451 c 0,-3.7734 1.92107,-5.6271 5.69451,-5.6271 h 9.00236 v -10.0609 z m 11.38631,0 15.49154,30.5847 c 0.86061,1.5888 2.11889,2.4484 3.77391,2.4484 h 3.83854 c 1.58882,0 2.84747,-0.8596 3.64187,-2.4484 l 15.62358,-30.5847 H 766.1892 l -9.86437,20.456 -9.93172,-20.456 z m 59.18358,0 c -10.26111,0 -17.7408,6.6852 -17.7408,16.4829 0,9.7977 7.47969,16.5502 17.7408,16.5502 h 4.63587 c 10.26111,0 17.7408,-6.7525 17.7408,-16.5502 0,-9.7977 -7.47969,-16.4829 -17.7408,-16.4829 z m 220.15004,0 v 17.2773 c 0,10.0625 5.6271,15.7558 16.5502,15.7558 h 6.3545 c 10.9231,0 16.5502,-5.6933 16.5502,-15.7558 v -17.2773 h -11.055 v 17.2773 c 0,3.7073 -1.9195,5.6923 -5.7592,5.6923 h -5.8265 c -3.7735,0 -5.7592,-1.985 -5.7592,-5.6923 v -17.2773 z m 62.0281,0 c -10.2611,0 -17.7407,6.6852 -17.7407,16.4829 0,9.7977 7.4796,16.5502 17.7407,16.5502 h 14.8963 v -10.0635 h -14.9609 c -3.9058,0 -6.6858,-2.647 -6.6858,-6.4867 0,-3.8396 2.78,-6.422 6.6858,-6.422 h 14.9609 v -10.0609 z m 45.7474,0 -10.9904,12.9081 c -0.662,0.8606 -0.9939,1.9193 -0.9939,2.7799 v 0.7949 c 0,0.993 0.3967,1.7885 1.0586,2.7153 l 11.3217,13.8349 h 12.7116 l -13.9022,-17.0136 13.2395,-16.0195 z m 14.0989,0 15.8875,32.0391 c -0.9268,1.655 -2.4481,2.979 -5.2285,2.979 h -3.5099 v 9.5334 h 4.5039 c 6.3552,0 9.4663,-2.5818 12.3129,-8.2751 l 18.3361,-36.2764 h -11.2543 l -10.061,21.1832 -9.797,-21.1832 z m -162.98584,1.0587 h 13.9696 c 6.02426,0 10.32772,4.2368 10.32772,10.4597 0,6.1567 -4.30346,10.3925 -10.32772,10.3925 h -13.9696 z m -179.10324,9.0022 h 4.70051 c 3.83964,0 6.6858,2.5824 6.6858,6.422 0,3.8397 -2.84616,6.4867 -6.6858,6.4867 h -4.70051 c -3.90584,0 -6.6858,-2.647 -6.6858,-6.4867 0,-3.8396 2.77996,-6.422 6.6858,-6.422 z"
           sodipodi:nodetypes="cccccccssscsssccssssssccssssssccssccsccssccccccssssssscssssccssssccsssccsssccsccssccccccccsccscccccccsssccsssssss" />
        <rect
           style="fill:#000000;fill-opacity:0.97332;stroke:none;stroke-width:3.3;stroke-linecap:round;stroke-linejoin:round;stroke-miterlimit:22.1;stroke-dasharray:none;stroke-opacity:1;paint-order:markers fill stroke"
           id="rect81"
           width="529.04242"
           height="9.5336514"
           x="614.45343"
           y="1281.1624" />
      </g>
      <g
         id="g80"
         transform="translate(-530.69696,-530.29155)"
         inkscape:export-filename="g80.png"
         inkscape:export-xdpi="360"
         inkscape:export-ydpi="360">
        <path
           id="path71"
           style="opacity:1;fill:#ffde01;fill-opacity:1"
           d="m 446.90269,842.70746 c -7.84515,0.30993 -15.86226,3.01772 -21.88756,7.48326 -3.07611,2.27979 -8.63508,7.88411 -10.28464,10.36836 -3.07381,4.62923 -5.09924,9.53842 -6.29522,15.25695 -0.52296,2.50047 -0.6081,3.67442 -0.60152,8.33438 0.0118,8.32561 1.21994,13.48168 4.64882,19.84064 1.77716,3.29578 3.2806,5.16661 8.13593,10.12393 l 4.63848,4.73615 -2.63446,-0.21859 c -6.33542,-0.52527 -12.16474,-0.0317 -19.70009,1.66811 -8.71894,1.96678 -10.37405,2.24342 -14.35572,2.39882 -4.49336,0.17536 -6.75456,-0.1047 -10.51512,-1.30121 -6.13502,-1.95201 -10.83875,-5.23049 -15.29002,-10.65723 -3.78771,-4.61777 -5.26041,-5.6809 -7.87549,-5.68596 -7.76277,-0.015 -16.00002,18.46581 -17.33486,38.89117 -1.31298,20.09085 4.84734,40.13991 16.9075,55.02455 6.81686,8.41341 17.74891,16.66141 27.85204,21.01431 9.23428,3.9785 21.0864,6.82 34.23771,8.2088 4.89794,0.5172 15.36994,0.9243 19.44687,0.756 2.25277,-0.093 11.57196,-0.6187 13.49375,-0.7612 13.38653,-0.9924 30.10819,-5.3084 39.34644,-10.156 10.57762,-5.5503 19.41191,-13.8992 24.36079,-23.02188 6.42254,-11.83907 7.3835,-27.87195 2.41794,-40.33862 -3.53015,-8.8629 -9.37904,-16.33084 -19.16731,-24.47344 -2.17969,-1.81323 -5.29745,-4.4094 -6.92826,-5.76916 -5.08858,-4.24285 -7.75098,-7.57668 -7.75043,-9.70535 2.8e-4,-1.06358 1.28689,-3.71555 2.44016,-5.02967 l 0.4992,-1.07383 c 4.63644,-13.59566 7.75811,-30.28413 7.74216,-34.56017 -0.0589,-0.19317 -0.1264,-0.35436 -0.18035,-0.55035 -2.33725,-8.49035 -8.01125,-16.37899 -16.18971,-22.50819 -6.51116,-4.87967 -15.50222,-7.76115 -25.8315,-8.27856 -1.1074,-0.0555 -2.22479,-0.0603 -3.34553,-0.016 z"
           inkscape:label="duck body" />
        <circle
           style="opacity:1;fill:#000300;fill-opacity:1;stroke:none;stroke-width:4.06859;stroke-linecap:round;stroke-linejoin:round;stroke-miterlimit:22.1;stroke-dasharray:none;stroke-opacity:1;paint-order:markers fill stroke"
           id="circle71"
           cx="462.85056"
           cy="877.69153"
           r="8.8293571" />
        <path
           id="path72"
           style="opacity:1;fill:#000000"
           d="m 446.90295,842.70722 c -7.84515,0.30993 -15.86225,3.01772 -21.88755,7.48326 -3.07611,2.27979 -8.63508,7.88411 -10.28464,10.36836 -3.07381,4.62923 -5.09925,9.53842 -6.29523,15.25695 -0.52296,2.50047 -0.60809,3.67442 -0.60151,8.33438 0.0118,8.32561 1.21993,13.48169 4.64881,19.84065 1.77716,3.29578 3.28061,5.16661 8.13594,10.12393 l 4.63848,4.73614 -2.63447,-0.21859 c -6.33542,-0.52527 -12.16474,-0.0317 -19.70009,1.66812 -8.71894,1.96678 -10.37404,2.24342 -14.35571,2.39882 -4.49336,0.17536 -6.75456,-0.10471 -10.51512,-1.30122 -6.13502,-1.95201 -10.83875,-5.23049 -15.29002,-10.65723 -3.78771,-4.61777 -5.26041,-5.6809 -7.87549,-5.68596 -7.76277,-0.015 -16.00002,18.46581 -17.33486,38.89117 -1.31298,20.09085 4.84733,40.13991 16.90749,55.02455 6.81686,8.41345 17.74892,16.66145 27.85205,21.01425 9.23428,3.9786 21.08639,6.8201 34.2377,8.2088 4.89794,0.5173 15.36995,0.9243 19.44688,0.756 2.25277,-0.093 11.57196,-0.6188 13.49375,-0.7612 13.38653,-0.9924 30.10819,-5.3084 39.34644,-10.156 10.57762,-5.5504 19.4119,-13.8992 24.36078,-23.02182 6.42254,-11.83907 7.3835,-27.87195 2.41794,-40.33862 -3.53015,-8.8629 -9.37903,-16.33084 -19.1673,-24.47344 -2.17969,-1.81323 -5.29745,-4.4094 -6.92826,-5.76916 -5.08858,-4.24285 -7.75098,-7.57668 -7.75043,-9.70535 2.8e-4,-1.06358 1.89814,-3.3674 2.44016,-5.02967 3.05907,-9.38153 9.83787,-23.82804 8.061,-36.18435 -1.25346,-8.71651 -8.01125,-16.37899 -16.18971,-22.50819 -6.51116,-4.87967 -15.50221,-7.76115 -25.83149,-8.27856 -1.1074,-0.0555 -2.2248,-0.0603 -3.34554,-0.016 z m 2.98328,5.56917 c 9.48954,0.21226 16.38476,2.394 22.88646,7.24193 3.48813,2.60088 7.36134,6.27276 8.91729,8.45323 1.77782,2.49138 3.84234,6.74154 4.97127,10.234 l 1.00149,3.09697 c 0.41463,14.65625 -9.26042,30.91388 -9.26042,30.91388 0.11321,0.1016 -0.18444,1.0086 -0.66145,2.0159 -0.79153,1.67147 -0.86714,2.05226 -0.86714,4.35735 0,2.39521 0.0523,2.63181 1.01493,4.58112 1.36541,2.76478 4.6312,6.13987 10.94558,11.31197 5.9399,4.86536 10.71333,9.2475 13.116,12.04061 6.66425,7.74723 10.73553,16.42853 11.41429,24.33856 0.45364,5.28664 0.42103,6.72354 -0.27337,12.00909 -0.31694,2.41239 -1.67509,7.17968 -2.80448,9.84436 -4.35236,10.26895 -12.51682,18.53444 -24.5494,24.85374 -14.69199,7.716 -40.61372,11.6147 -64.69063,9.7297 -22.56701,-1.7669 -40.52164,-7.865 -52.93372,-17.9783 -12.7536,-10.39156 -21.84821,-26.60371 -24.55974,-43.77971 -0.44417,-2.81353 -0.48603,-3.17457 -0.96893,-8.35918 -0.46001,-4.93877 0.1834,-13.44393 1.48518,-19.63239 1.68622,-8.01598 4.35953,-15.31615 7.38094,-20.15536 1.50047,-2.40322 2.48764,-3.34119 3.54914,-3.37137 1.03834,-0.0295 1.6614,0.51868 3.07113,2.70268 3.49768,5.41875 9.79217,10.33237 16.44344,12.83591 3.92547,1.47754 8.31048,2.22688 13.06277,2.23242 4.35307,0.005 7.80969,-0.54503 16.40417,-2.60966 6.14883,-1.47711 13.72465,-2.00153 18.79213,-1.3007 4.37794,0.60547 5.92745,0.28207 7.30653,-1.526 0.54795,-0.71841 0.75377,-1.33198 0.83819,-2.49908 0.17107,-2.365 -0.39292,-3.23793 -5.0586,-7.82639 -5.83385,-5.73728 -8.04918,-8.82511 -10.19318,-14.20792 -3.7828,-9.49719 -3.46148,-20.46709 0.86145,-29.41629 3.67588,-7.60968 8.8403,-12.72901 16.68993,-16.54421 3.19584,-1.5533 5.04833,-2.18276 8.94364,-3.04064 2.68733,-0.59185 3.40498,-0.64285 7.72511,-0.54622 z m 12.6814,22.85287 c -2.01979,0.0182 -4.15945,1.09217 -5.24051,2.63033 -1.35102,1.92227 -1.23405,5.27912 0.26355,7.56543 0.99501,1.51903 3.36653,2.5633 5.78931,2.54971 1.09843,-0.006 2.13972,-0.16659 2.55902,-0.39429 0.41181,-0.22363 1.0194,-1.01987 1.45521,-1.90738 0.60793,-1.23802 0.74827,-1.87587 0.74827,-3.40237 0,-1.62519 -0.12498,-2.12391 -0.92604,-3.69332 -1.24889,-2.44679 -2.52684,-3.36717 -4.64881,-3.34811 z"
           sodipodi:nodetypes="ssssssscssssssssssscsssssssssssssscccssssssssssssssssssssssssssssssssssssss" />
        <circle
           style="opacity:1;fill:#ffffff;fill-opacity:1;stroke:none;stroke-width:2.06805;stroke-linecap:round;stroke-linejoin:round;stroke-miterlimit:22.1;stroke-dasharray:none;stroke-opacity:1;paint-order:markers fill stroke"
           id="circle72"
           cx="464.85904"
           cy="878.85791"
           r="4.4879384" />
        <path
           id="path73"
           style="opacity:1;fill:#000000"
           d="m 366.07195,941.02596 c 2.58328,0.004 4.0878,0.73559 6.02857,2.93367 l 1.49552,1.69395 h 9.87588 c 5.43182,0 18.38937,-0.0502 28.79411,-0.11162 16.49869,-0.0973 19.17093,-0.0583 20.90156,0.30541 6.16211,1.29505 11.42026,4.15004 15.90808,8.6372 4.14344,4.14282 6.49169,8.27608 8.10183,14.26166 0.61607,2.29026 0.69174,3.05007 0.68574,6.93756 -0.005,3.84605 -0.0877,4.67107 -0.69091,6.93343 -1.20267,4.51087 -3.45321,8.75834 -6.72052,12.68398 -5.89285,7.0803 -14.52718,11.8006 -24.82484,13.5718 -4.93211,0.8484 -5.70917,0.8484 -6.71742,0 -0.90853,-0.7645 -1.29499,-2.1446 -0.83923,-2.9962 0.48686,-0.9097 1.65056,-1.3234 5.62963,-2.0019 2.07878,-0.3545 4.85066,-0.9548 6.16035,-1.3343 4.5439,-1.3165 11.40179,-5.10325 13.88236,-7.66522 l 0.91777,-0.94774 -6.07715,-6.088 c -4.4436,-4.45161 -6.43714,-6.26545 -7.41711,-6.74791 l -1.33997,-0.65991 -13.41417,0.0734 -13.41365,0.0734 -1.50534,1.69034 c -2.82873,3.17592 -6.15188,4.03325 -9.46815,2.44274 -2.91331,-1.39725 -4.34923,-3.59904 -4.35943,-6.68279 -0.007,-2.20403 0.93179,-4.17255 2.59623,-5.44205 1.4742,-1.12441 2.91017,-1.48523 5.33559,-1.34152 2.4982,0.14803 3.90157,0.83391 5.72213,2.79725 l 1.3565,1.46296 14.5185,0.0233 14.51798,0.0227 1.4552,0.75912 c 1.06699,0.5568 3.18803,2.48025 7.94939,7.2099 3.57157,3.54778 6.66946,6.45077 6.88433,6.45077 0.49031,0 2.62878,-3.42455 2.62878,-4.20956 0,-0.37599 -0.91267,-1.53159 -2.57968,-3.26699 -10.04679,-10.45897 -14.47896,-14.92547 -15.46521,-15.58458 -0.62548,-0.41801 -1.90104,-0.99891 -2.83497,-1.29036 -1.63545,-0.51033 -2.37183,-0.52801 -19.97604,-0.49041 -10.0529,0.0215 -18.98467,0.11311 -19.8484,0.20361 -1.55064,0.1624 -1.58038,0.181 -2.33939,1.48725 -1.74991,3.01156 -3.42813,3.97013 -6.9386,3.96513 -2.68013,-0.004 -3.53979,-0.32293 -5.24774,-1.94407 -1.63388,-1.55083 -2.14819,-2.76283 -2.14819,-5.06377 0,-2.37585 0.53251,-3.57055 2.32906,-5.22656 1.66682,-1.53642 2.83542,-1.99038 5.19916,-2.01848 2.32678,-0.0277 3.8809,0.55964 5.3387,2.01745 1.9933,1.9933 -0.0756,1.8374 23.15466,1.7415 l 20.85144,-0.0858 1.54047,0.58756 c 3.89108,1.48436 5.83062,3.16606 14.91795,12.93668 3.16484,3.4028 5.83059,6.18722 5.92419,6.18722 0.57993,0 0.66781,-5.71703 0.13074,-8.50956 -1.79153,-9.31502 -8.5456,-16.74837 -18.14721,-19.9719 l -2.24948,-0.755 h -28.70677 c -15.78901,0 -29.02673,0.0896 -29.41681,0.19896 -0.41769,0.11713 -1.18359,0.82404 -1.86345,1.71979 -2.27828,3.00172 -6.39429,4.21459 -9.49813,2.79931 -1.63097,-0.74369 -3.16109,-2.16416 -3.87884,-3.60133 -2.45525,-4.91616 1.46072,-10.77943 7.1944,-10.77143 z m 0.20774,4.9847 c -0.74054,-0.0436 -1.53123,0.1902 -2.16473,0.7674 -0.43922,0.40019 -0.87178,1.10954 -0.96118,1.57665 -0.1359,0.70991 -0.0305,0.9813 0.64182,1.65364 0.62615,0.62615 1.02873,0.80065 1.81694,0.78755 1.94269,-0.0322 2.99724,-0.93502 2.99724,-2.56728 0,-1.30274 -1.09586,-2.14532 -2.33009,-2.21796 z m 14.22497,15.39028 c -1.07799,0.0494 -2.06957,0.84638 -2.27842,2.15852 -0.1289,0.80986 -0.0408,1.08677 0.52607,1.65365 0.54891,0.54891 0.93609,0.6811 1.99678,0.6811 1.10628,0 1.4029,-0.11096 1.86397,-0.69712 0.78671,-1.00014 0.7054,-2.09753 -0.2248,-3.02772 -0.5588,-0.5588 -1.23681,-0.79809 -1.8836,-0.76843 z m 14.53658,14.45235 c -0.88136,0.0231 -1.2718,0.18819 -1.74511,0.73845 -0.83164,0.96688 -0.81448,2.35071 0.0398,3.20498 0.90885,0.90885 2.69748,0.90905 3.67781,5.1e-4 0.95159,-0.88187 0.92676,-1.99936 -0.0687,-3.1135 -0.65393,-0.73189 -0.93792,-0.85574 -1.90376,-0.83044 z" />
        <g
           id="g79"
           transform="matrix(0.91147659,-0.07541589,0.07541589,0.91147659,261.45087,410.821)"
           style="display:inline;opacity:1">
          <path
             id="path74"
             style="fill:#fe6220;fill-opacity:1;stroke-linecap:round;stroke-linejoin:round;stroke-miterlimit:22.1;paint-order:markers fill stroke"
             d="m 200.8431,526.07117 c -10.29528,1.9e-4 -18.69892,8.40383 -18.69912,18.69912 -1.4e-4,10.29554 8.40359,18.70099 18.69912,18.70118 a 2.750275,2.750275 0 0 0 0.0119,0 c 1.81736,-0.008 3.62137,-0.28688 5.35935,-0.81494 l 47.69632,-7.53752 c 5.54213,-0.17561 10.03997,-4.76673 10.0397,-10.34872 -1.1e-4,-5.58172 -4.49783,-10.17112 -10.0397,-10.34665 l -47.6064,-7.52358 c -1.76912,-0.54181 -3.60791,-0.82727 -5.45909,-0.82889 a 2.750275,2.750275 0 0 0 -0.002,0 z"
             inkscape:label="duck bill" />
          <path
             id="path75"
             style="fill:none;fill-opacity:1;stroke:#000000;stroke-width:5.5;stroke-linecap:round;stroke-linejoin:round;stroke-miterlimit:22.1;stroke-dasharray:none;stroke-opacity:1;paint-order:markers fill stroke"
             d="m 200.84413,528.82062 a 15.950733,15.950733 0 0 0 -15.95044,15.95044 15.950733,15.950733 0 0 0 15.95044,15.95097 15.950733,15.950733 0 0 0 4.79248,-0.75758 l 47.94952,-7.57835 a 7.6146717,7.6146717 0 0 0 7.61453,-7.61504 7.6146717,7.6146717 0 0 0 -7.61453,-7.61452 l -47.85031,-7.56284 a 15.950733,15.950733 0 0 0 -4.89169,-0.77308 z" />
          <path
             id="path76"
             style="baseline-shift:baseline;display:inline;overflow:visible;vector-effect:none;fill:#000100;fill-opacity:1;stroke-linecap:round;stroke-linejoin:round;stroke-miterlimit:22.1;paint-order:markers fill stroke;enable-background:accumulate;stop-color:#000000"
             d="m 200.84413,537.76271 a 7.0085096,7.0085096 0 0 0 -7.00836,7.00835 7.0085096,7.0085096 0 0 0 7.00836,7.00888 7.0085096,7.0085096 0 0 0 7.00887,-7.00888 7.0085096,7.0085096 0 0 0 -7.00887,-7.00835 z m 0,2.50837 a 4.5,4.5 0 0 1 4.49998,4.49998 4.5,4.5 0 0 1 -4.49998,4.49999 4.5,4.5 0 0 1 -4.49999,-4.49999 4.5,4.5 0 0 1 4.49999,-4.49998 z" />
          <circle
             style="fill:#000000;fill-opacity:1;stroke:none;stroke-width:7;stroke-linecap:round;stroke-linejoin:round;stroke-miterlimit:22.1;paint-order:markers fill stroke"
             id="circle76"
             cx="253.58592"
             cy="544.77124"
             r="2.3406351" />
          <circle
             style="fill:#000000;fill-opacity:1;stroke:none;stroke-width:7;stroke-linecap:round;stroke-linejoin:round;stroke-miterlimit:22.1;paint-order:markers fill stroke"
             id="circle77"
             cx="242.82622"
             cy="544.77124"
             r="2.3406351" />
          <circle
             style="fill:#000000;fill-opacity:1;stroke:none;stroke-width:7;stroke-linecap:round;stroke-linejoin:round;stroke-miterlimit:22.1;paint-order:markers fill stroke"
             id="circle78"
             cx="232.06651"
             cy="544.77124"
             r="2.3406351" />
          <circle
             style="fill:#000000;fill-opacity:1;stroke:none;stroke-width:7;stroke-linecap:round;stroke-linejoin:round;stroke-miterlimit:22.1;paint-order:markers fill stroke"
             id="circle79"
             cx="221.30681"
             cy="544.77124"
             r="2.3406351" />
        </g>
      </g>
    </g>
  </g>
</svg>
